<svg version="1.1" id="Layer_1" xmlns="http://www.w3.org/2000/svg" xmlns:xlink="http://www.w3.org/1999/xlink" x="0px" y="0px"
	 width="512px" height="512px" viewBox="-15 -22 356 356" enable-background="new 0 0 326 312" xml:space="preserve">
<path fill="#010101" opacity="1.000000" stroke="none" 
	d="
M223.000000,313.000000 
	C148.666687,313.000000 74.833359,313.000000 1.000030,313.000000 
	C1.000020,209.000031 1.000020,105.000061 1.000010,1.000072 
	C109.666618,1.000048 218.333237,1.000048 326.999878,1.000024 
	C326.999939,104.999931 326.999939,208.999863 326.999969,312.999878 
	C292.500000,313.000000 258.000000,313.000000 223.000000,313.000000 
M163.598419,218.149841 
	C159.177597,220.807297 154.588989,223.228333 150.394455,226.204697 
	C147.561661,228.214813 145.522369,227.736893 142.847183,226.054688 
	C135.381241,221.359924 127.844635,216.755508 120.127960,212.491821 
	C116.806900,210.656845 115.495056,208.649597 115.566803,204.726837 
	C115.840973,189.736771 115.700645,174.738632 115.642570,159.743790 
	C115.637108,158.332108 115.609978,156.214005 114.762558,155.631210 
	C110.500771,152.700150 105.963097,150.170242 100.702057,147.006165 
	C100.702057,165.539108 100.702057,182.766663 100.702057,200.673767 
	C96.296188,198.089935 92.543709,195.706055 88.618904,193.651291 
	C85.951454,192.254761 84.982651,190.518661 85.024162,187.401825 
	C85.228271,172.073792 85.168320,156.741531 85.082817,141.411423 
	C85.074524,139.925522 84.718559,137.761795 83.723938,137.080246 
	C79.680061,134.309235 75.324265,131.993454 71.063438,129.498108 
	C70.668259,130.247635 70.396477,130.522949 70.395424,130.799316 
	C70.311249,152.791794 70.186394,174.784744 70.321434,196.776077 
	C70.330536,198.257965 71.992012,200.259445 73.425095,201.125198 
	C106.613937,221.175354 139.904846,241.056610 173.077896,261.132660 
	C175.853226,262.812256 177.643311,262.428253 180.161835,260.907257 
	C200.817078,248.433136 221.299255,235.634399 242.395050,223.946945 
	C250.576248,219.414429 254.328857,214.450729 253.159576,205.052917 
	C252.686493,201.250671 251.614731,199.262131 248.448547,197.378098 
	C206.690643,172.530106 165.008362,147.555023 123.314484,122.599518 
	C120.681129,121.023346 118.108391,119.345924 115.446709,117.677528 
	C115.994743,117.047760 116.166344,116.723015 116.435783,116.559120 
	C135.913086,104.712036 155.373962,92.837212 174.943909,81.144989 
	C176.095520,80.456963 178.434418,80.716103 179.707138,81.438919 
	C188.242996,86.286621 196.728317,91.240448 205.001556,96.518044 
	C206.533432,97.495247 207.843124,100.087257 207.871552,101.955040 
	C208.104752,117.282265 207.994766,132.614517 208.041077,147.945084 
	C208.045425,149.388977 207.882477,151.586990 208.691116,152.149277 
	C213.066483,155.191620 217.723450,157.828979 223.275116,161.209900 
	C223.275116,142.367599 223.275116,125.033714 223.275116,107.251091 
	C227.423065,109.713249 230.877457,112.064400 234.594086,113.878151 
	C237.773117,115.429520 238.618454,117.581505 238.576385,120.988167 
	C238.389145,136.149979 238.447083,151.315430 238.527634,166.478973 
	C238.535629,167.987747 238.811569,170.193375 239.795563,170.876450 
	C243.821533,173.671219 248.170471,176.000732 252.653763,178.651276 
	C252.900055,177.577118 253.090866,177.132050 253.091476,176.686722 
	C253.121292,154.524292 253.172668,132.361649 253.051392,110.199959 
	C253.044464,108.936218 251.918060,107.165398 250.796219,106.495575 
	C217.513107,86.623558 184.145706,66.892754 150.859070,47.026627 
	C147.908447,45.265633 145.687744,45.423252 142.786652,47.153648 
	C122.921158,59.002697 103.271477,71.278435 82.871490,82.137817 
	C73.363968,87.198875 68.957207,92.975609 70.722031,103.700714 
	C71.226173,106.764465 71.752480,108.691116 74.560875,110.358749 
	C101.174309,126.161850 127.681343,142.144028 154.238937,158.041351 
	C172.319809,168.864517 190.432465,179.634598 209.149902,190.797607 
	C193.827560,200.016357 179.036682,208.915344 163.598419,218.149841 
z"/>
<path fill="#F9F9F9" opacity="1.000000" stroke="none" 
	d="
M163.922119,217.982086 
	C179.036682,208.915344 193.827560,200.016357 209.149902,190.797607 
	C190.432465,179.634598 172.319809,168.864517 154.238937,158.041351 
	C127.681343,142.144028 101.174309,126.161850 74.560875,110.358749 
	C71.752480,108.691116 71.226173,106.764465 70.722031,103.700714 
	C68.957207,92.975609 73.363968,87.198875 82.871490,82.137817 
	C103.271477,71.278435 122.921158,59.002697 142.786652,47.153648 
	C145.687744,45.423252 147.908447,45.265633 150.859070,47.026627 
	C184.145706,66.892754 217.513107,86.623558 250.796219,106.495575 
	C251.918060,107.165398 253.044464,108.936218 253.051392,110.199959 
	C253.172668,132.361649 253.121292,154.524292 253.091476,176.686722 
	C253.090866,177.132050 252.900055,177.577118 252.653763,178.651276 
	C248.170471,176.000732 243.821533,173.671219 239.795563,170.876450 
	C238.811569,170.193375 238.535629,167.987747 238.527634,166.478973 
	C238.447083,151.315430 238.389145,136.149979 238.576385,120.988167 
	C238.618454,117.581505 237.773117,115.429520 234.594086,113.878151 
	C230.877457,112.064400 227.423065,109.713249 223.275116,107.251091 
	C223.275116,125.033714 223.275116,142.367599 223.275116,161.209900 
	C217.723450,157.828979 213.066483,155.191620 208.691116,152.149277 
	C207.882477,151.586990 208.045425,149.388977 208.041077,147.945084 
	C207.994766,132.614517 208.104752,117.282265 207.871552,101.955040 
	C207.843124,100.087257 206.533432,97.495247 205.001556,96.518044 
	C196.728317,91.240448 188.242996,86.286621 179.707138,81.438919 
	C178.434418,80.716103 176.095520,80.456963 174.943909,81.144989 
	C155.373962,92.837212 135.913086,104.712036 116.435783,116.559120 
	C116.166344,116.723015 115.994743,117.047760 115.446709,117.677528 
	C118.108391,119.345924 120.681129,121.023346 123.314484,122.599518 
	C165.008362,147.555023 206.690643,172.530106 248.448547,197.378098 
	C251.614731,199.262131 252.686493,201.250671 253.159576,205.052917 
	C254.328857,214.450729 250.576248,219.414429 242.395050,223.946945 
	C221.299255,235.634399 200.817078,248.433136 180.161835,260.907257 
	C177.643311,262.428253 175.853226,262.812256 173.077896,261.132660 
	C139.904846,241.056610 106.613937,221.175354 73.425095,201.125198 
	C71.992012,200.259445 70.330536,198.257965 70.321434,196.776077 
	C70.186394,174.784744 70.311249,152.791794 70.395424,130.799316 
	C70.396477,130.522949 70.668259,130.247635 71.063438,129.498108 
	C75.324265,131.993454 79.680061,134.309235 83.723938,137.080246 
	C84.718559,137.761795 85.074524,139.925522 85.082817,141.411423 
	C85.168320,156.741531 85.228271,172.073792 85.024162,187.401825 
	C84.982651,190.518661 85.951454,192.254761 88.618904,193.651291 
	C92.543709,195.706055 96.296188,198.089935 100.702057,200.673767 
	C100.702057,182.766663 100.702057,165.539108 100.702057,147.006165 
	C105.963097,150.170242 110.500771,152.700150 114.762558,155.631210 
	C115.609978,156.214005 115.637108,158.332108 115.642570,159.743790 
	C115.700645,174.738632 115.840973,189.736771 115.566803,204.726837 
	C115.495056,208.649597 116.806900,210.656845 120.127960,212.491821 
	C127.844635,216.755508 135.381241,221.359924 142.847183,226.054688 
	C145.522369,227.736893 147.561661,228.214813 150.394455,226.204697 
	C154.588989,223.228333 159.177597,220.807297 163.922119,217.982086 
M105.682762,86.182175 
	C98.643318,90.359177 91.603867,94.536186 84.064407,99.009888 
	C89.384987,102.199181 93.868904,105.026512 98.511597,107.563255 
	C99.558418,108.135239 101.479034,108.228188 102.456779,107.641167 
	C122.356445,95.693604 142.177338,83.614853 162.629181,71.188545 
	C158.044983,68.451523 154.063324,65.774780 149.794342,63.685001 
	C148.263611,62.935677 145.644562,62.907314 144.194031,63.731808 
	C131.488312,70.953751 118.934700,78.443321 105.682762,86.182175 
M215.155151,223.670517 
	C223.149200,218.843979 231.143250,214.017441 239.578201,208.924713 
	C234.790085,206.060074 230.678680,203.845001 226.847534,201.220764 
	C224.364120,199.519684 222.521790,199.922043 220.134338,201.374344 
	C204.787155,210.710159 189.351349,219.900269 173.951233,229.149200 
	C169.884186,231.591797 165.840393,234.073059 161.244278,236.865662 
	C165.882492,239.674866 169.837448,242.421066 174.120056,244.488556 
	C175.793869,245.296600 178.638153,245.337296 180.209106,244.436539 
	C191.751556,237.818329 203.106400,230.872864 215.155151,223.670517 
z"/>
<path fill="#050505" opacity="1.000000" stroke="none" 
	d="
M106.009369,86.017853 
	C118.934700,78.443321 131.488312,70.953751 144.194031,63.731808 
	C145.644562,62.907314 148.263611,62.935677 149.794342,63.685001 
	C154.063324,65.774780 158.044983,68.451523 162.629181,71.188545 
	C142.177338,83.614853 122.356445,95.693604 102.456779,107.641167 
	C101.479034,108.228188 99.558418,108.135239 98.511597,107.563255 
	C93.868904,105.026512 89.384987,102.199181 84.064407,99.009888 
	C91.603867,94.536186 98.643318,90.359177 106.009369,86.017853 
z"/>
<path fill="#050505" opacity="1.000000" stroke="none" 
	d="
M214.837753,223.850525 
	C203.106400,230.872864 191.751556,237.818329 180.209106,244.436539 
	C178.638153,245.337296 175.793869,245.296600 174.120056,244.488556 
	C169.837448,242.421066 165.882492,239.674866 161.244278,236.865662 
	C165.840393,234.073059 169.884186,231.591797 173.951233,229.149200 
	C189.351349,219.900269 204.787155,210.710159 220.134338,201.374344 
	C222.521790,199.922043 224.364120,199.519684 226.847534,201.220764 
	C230.678680,203.845001 234.790085,206.060074 239.578201,208.924713 
	C231.143250,214.017441 223.149200,218.843979 214.837753,223.850525 
z"/>
</svg>
